<svg xmlns="http://www.w3.org/2000/svg" viewBox="0 0 447 128" fill="none" class="w_auto h_d32 md:h_d36" data-ab-filters-channel="a7c689f8-8743-49a1-8f53-18ef89e32955"><path fill="#fff" d="m200 79.5-6-16-17.4-3 15.7 39.2-11 28.3h16.2l22.8-59.1-15-3.1-5.2 13.7Zm70 9.5c-5.8 0-9.8-3.7-9.8-11V77l-15.7-3v5c0 16.6 10.2 24 23.8 24 4 0 8.1-.5 11.6-1.7l-1-13.9c-2.8 1.3-6 1.7-8.8 1.7ZM141 65.6c0 14.2-8.3 23.7-21 23.7-12.6 0-21-9.5-21-23.7 0-2.8.3-5.3.9-7.7-5.6.5-11 1.1-16.2 1.9a53 53 0 0 0-.4 5.8c0 21.8 12.5 37.4 34.7 37.4 9.6 0 18.4-4.3 21.8-10.4v9.2h15.7V58c-5.1-.5-10.3-.8-15.7-1 .8 2.6 1.2 5.4 1.2 8.6Zm202.6 36.2h15.7v-22a332 332 0 0 1-15.7 1.6v20.4Zm-51 0h15.6V82.1a318 318 0 0 1-15.7-1v20.7Zm153.7-44.5a253 253 0 0 1-15 5.8v2.5c0 14.2-8.3 23.7-21 23.7-9.8 0-17-5.7-19.7-14.9-5 1.1-10.4 2.2-16 3.1V128h15.7V93.5a28 28 0 0 0 21.8 9.5c21.7 0 34.9-15.6 34.9-37.4 0-2.9-.2-5.7-.7-8.3ZM57.7 65.6c0 14.2-8.4 23.7-21 23.7-9.3 0-16.3-5.1-19.3-13.5a225 225 0 0 0-14.8 5.7c4.8 13.1 15.8 21.5 32 21.5 9.7 0 18.5-4.3 22-10.4v9.2h15.6V61.6c-5 .9-10 1.8-14.6 2.9v1ZM208.3 58.4l14.9 3 12.4-32h-16.1l-11.2 29ZM260.2 42.7h18.6V29.3h-18.6V7.8h-15.7V66l15.7 2.9V42.7ZM139.8 38.4a27.4 27.4 0 0 0-22.1-10.2 31.8 31.8 0 0 0-32.4 23.5c6-.8 12-1.5 18.3-2 3.7-5 9.4-7.8 16.4-7.8 6.7 0 12.1 2.6 15.8 7.1 6.7.2 13.3.6 19.7 1.1V29.3h-15.7v9.1ZM181 29.3h-16.9l9.2 22.9c6 .8 11.8 1.7 17.5 2.8L181 29.3ZM308.2 43.1V29.3h-15.7v44l15.7 1c.1-22 8.6-31 19.1-31 2.7 0 4.9.4 4.9.4l1-15.2s-1.7-.3-4.2-.3c-8.7 0-17.4 6.2-20.8 15ZM343.6 73.5c5.4-.4 10.6-1 15.7-1.6V29.3h-15.7v44.2ZM389.3 65.6c0-14.4 8.4-23.7 21-23.7 9.3 0 16.3 5 19.3 13.4 7.6-2.6 12.7-4.8 14.7-5.7A31.6 31.6 0 0 0 413 28.2c-10 0-18.5 4.4-22.6 10.3v-9.2h-15.6v40.3l14.7-2.9v-1.1ZM351.4 0a10 10 0 0 0-10.1 10.2 10 10 0 0 0 10 10 10 10 0 0 0 10.4-10c0-5.7-4.4-10.2-10.3-10.2ZM56.5 38.4a27.4 27.4 0 0 0-22.1-10.2C12.5 28.2 0 43.7 0 65.6c0 2.9.2 5.6.7 8.3 2.7-1.2 7.9-3.3 15-5.8v-2.5c0-14.4 8.3-23.7 21-23.7 9.8 0 17 5.6 19.7 14.8 5-1 10.3-2.1 15.8-3V0H56.5v38.4Z"/></svg>