<svg xmlns="http://www.w3.org/2000/svg" width="130" height="42" viewBox="0 0 130 42" fill="none" data-ab-filters-channel="0f608206-e8ee-45b7-9c71-6292fe212a00">
    <path d="M28.3198 12.8068C28.2186 11.6344 28.1435 10.769 28.0633 9.85478C26.8525 9.96819 25.7184 10.0746 24.5721 10.1828C24.0121 10.2351 23.5113 10.5492 23.213 11.0255C23.2095 11.0307 23.2078 11.0342 23.2043 11.0394C22.9949 11.3744 22.9094 11.7705 22.9461 12.163C23.5183 18.4056 22.3075 24.3603 21.7056 30.3063H26.9484C27.3253 26.3929 27.7039 22.6278 28.0458 18.861C28.3285 15.7519 30.1726 14.2584 33.2869 14.6789C33.9395 14.7661 34.5885 14.8795 35.2811 14.986C35.8395 13.3302 36.3786 11.7321 36.9299 10.0973C33.4666 9.0086 30.5722 9.56865 28.3198 12.8068Z" fill="white"/>
    <path d="M16.6059 26.7418C15.095 26.5203 13.5387 26.618 12.0051 26.5447C10.646 26.4801 9.28165 26.433 7.93125 26.276C6.93851 26.1608 6.46918 25.3984 6.66634 24.4807C6.89315 23.4251 7.49507 23.0273 8.4913 23.1565C10.906 23.4722 13.2735 23.378 15.5835 22.4516C20.1564 20.6162 21.2556 15.9264 19.4917 12.8103C19.2178 12.3253 19.4306 12.0636 19.8249 11.9502C20.282 11.8193 20.7426 11.7024 21.219 11.589C22.1122 11.3744 22.9148 10.8772 23.501 10.1671C23.5307 10.1305 23.5621 10.0938 23.5935 10.0589C23.6005 10.0502 23.6092 10.0467 23.6162 10.0415C23.7662 9.31568 23.8936 8.65094 24.0558 7.99842C24.1797 7.50118 24.0087 7.2796 23.5272 7.12083C21.4039 6.41771 19.4865 7.17492 18.4832 9.17959C18.1919 9.76406 17.9738 10.3852 17.7138 11.0133C17.5586 10.9522 17.4504 10.9173 17.3492 10.8667C13.0677 8.70677 8.9362 9.23367 5.10831 11.8525C1.93992 14.0212 1.74451 18.9552 4.53256 21.5251C4.82392 21.7938 5.14495 22.0346 5.28627 22.1515C4.4523 23.4321 3.44909 24.5627 2.93091 25.8817C2.35516 27.3472 2.739 28.8425 4.11208 29.8771C3.33394 30.4406 2.61163 30.8803 1.98703 31.4299C0.242317 32.9652 -0.336926 34.9158 0.186487 37.1577C0.687218 39.2985 2.32027 40.2145 4.28481 40.6855C5.17461 40.8984 6.08709 41.0205 6.98911 41.1845H9.25374C9.53464 41.1252 9.81553 41.0746 10.0929 41.0083C11.6074 40.6454 13.1933 40.4605 14.617 39.8777C17.7574 38.5919 20.228 36.5453 20.8194 32.9704C21.355 29.7323 20.5211 27.3176 16.6059 26.7418ZM11.7679 12.8138C13.8563 12.7911 15.2189 14.0752 15.2294 16.0764C15.2433 18.4649 13.4969 20.2864 11.2008 20.2777C9.22757 20.269 7.85274 18.9604 7.83878 17.0796C7.82308 14.6144 9.45787 12.8382 11.7679 12.8138ZM15.6184 34.4046C15.2433 35.6573 14.4338 36.5698 13.2439 36.999C11.8743 37.4927 10.4332 37.7876 9.02169 38.1697C9.00076 38.0912 8.97982 38.0144 8.95888 37.9359C8.72684 37.9359 8.49479 37.9429 8.26274 37.9341C6.34008 37.8748 5.17461 37.1089 4.78205 35.6486C4.29877 33.8533 5.10308 31.7265 6.60004 30.8663C6.7431 30.7843 6.92106 30.7058 7.07809 30.711C9.22059 30.793 11.3718 30.7878 13.5004 31.0111C15.6272 31.2362 16.2343 32.3476 15.6184 34.4046Z" fill="#4CAF50"/>
    <path d="M130 15.8199C128.714 19.2535 125.684 20.0788 122.561 20.6406C120.605 20.993 118.604 21.0959 116.618 21.3105C116.325 24.6709 117.878 26.7139 121.076 26.6319C123.217 26.5778 125.183 26.0038 127.09 25.1175C127.477 24.9378 127.857 24.7406 128.379 24.4824C128.152 25.8817 127.964 27.1588 127.723 28.4255C127.683 28.6383 127.46 28.8739 127.257 28.989C123.906 30.896 120.336 31.3705 116.606 30.4476C114.66 29.966 113.321 28.6785 112.425 26.918C112.195 26.4644 112.003 25.9933 111.701 25.3304C111.503 26.5202 111.354 27.513 111.159 28.497C111.108 28.75 110.97 29.0571 110.772 29.2019C107.806 31.3479 101.966 31.5886 99.2564 29.1164C97.6443 27.6456 96.7772 25.7735 96.4544 23.6711C95.7356 18.9918 97.0686 15.0244 100.837 12.027C103.435 9.96122 106.511 9.53202 109.718 9.72045C110.716 9.77977 111.708 9.9176 112.762 10.024C112.357 11.5611 111.998 12.922 111.642 14.2794C110.526 14.1346 109.451 13.9723 108.373 13.8606C104.82 13.496 102.945 15.4919 102.06 18.3201C101.521 20.0456 101.554 21.8148 102.025 23.5403C102.697 26.0056 104.669 27.1239 107.376 26.5115C108.603 26.2341 109.758 25.6514 110.951 25.2274C111.541 25.0181 111.604 24.6482 111.503 24.0794C110.979 21.1326 111.133 18.2189 112.586 15.56C114.83 11.4547 118.361 9.34882 123.086 9.39942C124.119 9.40989 125.179 9.53027 126.174 9.79721C128.124 10.3224 129.447 11.5786 130.003 13.5623C130 14.3143 130 15.068 130 15.8199ZM116.772 18.1142C117.886 18.041 118.944 18.0811 119.952 17.877C121.383 17.5873 122.805 17.1948 124.174 16.6958C124.951 16.4131 125.338 15.6716 125.218 14.7871C125.096 13.8868 124.471 13.4576 123.665 13.2395C120.516 12.3916 117.178 14.6964 116.772 18.1142Z" fill="white"/>
    <path d="M57.0083 21.2512C57.1671 22.2038 57.2282 23.0989 57.4759 23.9416C57.9871 25.681 59.184 26.5133 61.0037 26.6127C63.5143 26.7488 65.8156 26.0509 68.0244 24.9448C68.2791 24.8174 68.5356 24.6918 68.9613 24.4807C68.7275 25.9253 68.5286 27.2443 68.2826 28.5563C68.2495 28.7343 67.9948 28.907 67.8046 29.0152C64.4739 30.8995 60.913 31.4002 57.2299 30.4493C54.1801 29.6625 52.7826 27.3019 52.1388 24.4249C51.6643 22.3068 51.7445 20.1765 52.2174 18.0619C52.261 17.87 52.2819 17.6728 52.336 17.3326C49.7294 20.2393 46.2801 20.6196 42.8465 21.0122C41.7857 21.1326 40.7127 21.164 39.6485 21.2355C39.2315 24.5156 40.8261 26.6494 43.752 26.6214C46.2819 26.597 47.1734 26.3894 51.3555 24.5208C51.1287 25.9236 50.9315 27.2426 50.6838 28.5528C50.6506 28.7308 50.3976 28.9053 50.2074 29.0134C46.8768 30.8995 43.3211 31.388 39.631 30.4528C36.8447 29.7462 35.3373 27.6735 34.7022 25.0111C33.6711 20.6825 34.1143 16.5702 37.2495 13.1523C40.4336 9.68206 44.4639 8.6806 48.9896 9.75883C51.7201 10.4096 52.9658 12.1595 52.978 14.9825C52.978 15.1465 52.978 15.3122 52.978 15.3995C53.9533 14.309 54.8362 13.086 55.9458 12.1212C59.0461 9.42559 62.7013 8.80622 66.6182 9.76755C68.7049 10.2805 70.207 11.5472 70.5438 13.8013C70.8892 16.12 69.9506 17.9084 67.7854 19.1279C65.5103 20.4103 62.984 20.7679 60.4367 21.0139C59.3759 21.1169 58.3064 21.164 57.0083 21.2512ZM39.7549 18.1125C40.8663 18.0392 41.9236 18.0811 42.932 17.877C44.3627 17.5891 45.7846 17.1965 47.156 16.6993C47.9341 16.4166 48.3249 15.6786 48.208 14.7958C48.0841 13.8537 47.4194 13.4245 46.5785 13.2221C43.3944 12.4579 40.1946 14.6998 39.7549 18.1125ZM57.3555 18.1142C58.4686 18.041 59.5259 18.0811 60.5344 17.8787C61.965 17.5891 63.387 17.1983 64.7566 16.6993C65.533 16.4166 65.922 15.6751 65.8034 14.7923C65.676 13.8502 65.0096 13.4227 64.1686 13.2221C60.9863 12.4631 57.7725 14.7173 57.3555 18.1142Z" fill="white"/>
    <path d="M87.7954 30.3429C85.9983 30.3429 84.2659 30.3429 82.3676 30.3429C82.5351 28.8965 82.7078 27.4205 82.8736 25.9445C83.1789 23.2472 83.4964 20.5499 83.7704 17.8491C83.8279 17.282 83.7477 16.6941 83.6849 16.1218C83.4162 13.7123 81.155 12.6952 79.2847 14.2916C78.2187 15.2023 77.3777 16.455 76.6711 17.6868C75.5842 19.5833 75.4673 21.7624 75.2771 23.8945C75.0904 25.9916 74.9107 28.0887 74.7153 30.3167C72.9305 30.3167 71.1823 30.3167 69.4341 30.3167C70.1424 23.7374 71.4632 17.1756 70.5036 10.3747C72.3094 10.195 74.0157 10.0258 75.907 9.83735C75.907 11.2593 75.907 12.5643 75.907 13.8711C75.9994 13.8973 76.0936 13.9217 76.1861 13.9479C76.3536 13.7071 76.5246 13.4663 76.6903 13.2238C78.6496 10.3485 81.7535 9.08189 85.1644 9.76581C87.1464 10.1636 88.6241 11.6658 88.8283 13.8729C88.9958 15.6734 88.9504 17.5088 88.8248 19.3164C88.591 22.7185 88.2333 26.112 87.9228 29.5072C87.9071 29.734 87.8582 29.9573 87.7954 30.3429Z" fill="white"/>
    <path d="M90.941 10.4759C92.8968 10.2683 94.7358 10.0711 96.6741 9.86526C95.9588 16.6609 95.2522 23.3868 94.5247 30.2888C92.9073 30.2888 91.1347 30.2888 89.3027 30.2888C90.0966 23.7915 91.2882 17.2471 90.941 10.4759Z" fill="white"/>
    <path d="M98.3279 3.56511C98.3314 5.7617 96.7908 7.42615 94.6012 7.59714C92.6262 7.75067 91.3229 6.14554 91.7067 4.03444C92.1132 1.80645 94.4511 0.349615 96.6477 0.955029C97.7888 1.26908 98.3261 2.10479 98.3279 3.56511Z" fill="white"/>
</svg>