<svg xmlns="http://www.w3.org/2000/svg" width="147" height="30" viewBox="0 0 147 30" fill="none" data-ab-filters-channel="316b7c4b-0718-497d-b076-035b0eb56671">
    <path fill-rule="evenodd" clip-rule="evenodd" d="M24.1529 0H6.53327L0 6.5625V20.5281C0 22.6527 1.7223 24.375 3.84686 24.375H15.8668V30L28 17.8143H27.9966L27.9997 17.8125V3.84686C27.9997 1.7223 26.2774 0 24.1529 0ZM19.4661 6.5625H6.53295V15.8125C6.53295 16.9171 7.42838 17.8125 8.53295 17.8125H21.4661V8.5625C21.4661 7.45793 20.5707 6.5625 19.4661 6.5625ZM8.39972 8.4375H18.5996C19.1519 8.4375 19.5996 8.88521 19.5996 9.4375V15.9375H9.39972C8.84743 15.9375 8.39972 15.4898 8.39972 14.9375V8.4375Z" fill="url(#paint0_linear_10_5960)"/>
    <path d="M36.8807 20.5V8.86364H39.6932V13.5341H44.2784V8.86364H47.0852V20.5H44.2784V15.8239H39.6932V20.5H36.8807ZM48.8494 20.5V8.86364H56.9631V11.1477H51.6619V13.5341H56.5483V15.8239H51.6619V18.2159H56.9631V20.5H48.8494ZM58.7244 20.5V8.86364H61.5369V18.2159H66.3778V20.5H58.7244ZM67.8338 20.5V8.86364H72.6406C73.5118 8.86364 74.2637 9.03409 74.8963 9.375C75.5327 9.71212 76.0232 10.1837 76.3679 10.7898C76.7126 11.392 76.8849 12.0928 76.8849 12.892C76.8849 13.6951 76.7088 14.3977 76.3565 15C76.008 15.5985 75.5099 16.0625 74.8622 16.392C74.2145 16.7216 73.4455 16.8864 72.5554 16.8864H69.5895V14.6705H72.0327C72.4569 14.6705 72.8111 14.5966 73.0952 14.4489C73.383 14.3011 73.6009 14.0947 73.7486 13.8295C73.8963 13.5606 73.9702 13.2481 73.9702 12.892C73.9702 12.5322 73.8963 12.2216 73.7486 11.9602C73.6009 11.6951 73.383 11.4905 73.0952 11.3466C72.8073 11.2027 72.4531 11.1307 72.0327 11.1307H70.6463V20.5H67.8338ZM88.1634 12.5H86.7543C86.6709 12.0947 86.5251 11.7386 86.3168 11.4318C86.1122 11.125 85.8622 10.8674 85.5668 10.6591C85.2751 10.447 84.9512 10.2879 84.5952 10.1818C84.2391 10.0758 83.8679 10.0227 83.4815 10.0227C82.777 10.0227 82.1387 10.2008 81.5668 10.5568C80.9986 10.9129 80.5459 11.4375 80.2088 12.1307C79.8755 12.8239 79.7088 13.6742 79.7088 14.6818C79.7088 15.6894 79.8755 16.5398 80.2088 17.233C80.5459 17.9261 80.9986 18.4508 81.5668 18.8068C82.1387 19.1629 82.777 19.3409 83.4815 19.3409C83.8679 19.3409 84.2391 19.2879 84.5952 19.1818C84.9512 19.0758 85.2751 18.9186 85.5668 18.7102C85.8622 18.4981 86.1122 18.2386 86.3168 17.9318C86.5251 17.6212 86.6709 17.2652 86.7543 16.8636H88.1634C88.0573 17.4583 87.8641 17.9905 87.5838 18.4602C87.3035 18.9299 86.955 19.3295 86.5384 19.6591C86.1217 19.9848 85.6539 20.233 85.1349 20.4034C84.6198 20.5739 84.0687 20.6591 83.4815 20.6591C82.4891 20.6591 81.6065 20.4167 80.8338 19.9318C80.0611 19.447 79.4531 18.7576 79.0099 17.8636C78.5668 16.9697 78.3452 15.9091 78.3452 14.6818C78.3452 13.4545 78.5668 12.3939 79.0099 11.5C79.4531 10.6061 80.0611 9.91667 80.8338 9.43182C81.6065 8.94697 82.4891 8.70455 83.4815 8.70455C84.0687 8.70455 84.6198 8.78977 85.1349 8.96023C85.6539 9.13068 86.1217 9.38068 86.5384 9.71023C86.955 10.036 87.3035 10.4337 87.5838 10.9034C87.8641 11.3693 88.0573 11.9015 88.1634 12.5ZM90.4403 20.5V8.86364H94.3722C95.2813 8.86364 96.0275 9.01894 96.6108 9.32955C97.1941 9.63636 97.6259 10.0587 97.9062 10.5966C98.1866 11.1345 98.3267 11.7462 98.3267 12.4318C98.3267 13.1174 98.1866 13.7254 97.9062 14.2557C97.6259 14.786 97.196 15.2027 96.6165 15.5057C96.0369 15.8049 95.2964 15.9545 94.3949 15.9545H91.2131V14.6818H94.3494C94.9706 14.6818 95.4706 14.5909 95.8494 14.4091C96.232 14.2273 96.5085 13.9697 96.679 13.6364C96.8532 13.2992 96.9403 12.8977 96.9403 12.4318C96.9403 11.9659 96.8532 11.5587 96.679 11.2102C96.5047 10.8617 96.2263 10.5928 95.8438 10.4034C95.4612 10.2102 94.9555 10.1136 94.3267 10.1136H91.8494V20.5H90.4403ZM95.9176 15.2727L98.7812 20.5H97.1449L94.3267 15.2727H95.9176ZM108.311 8.86364H109.72V16.5682C109.72 17.3636 109.533 18.0739 109.158 18.6989C108.786 19.3201 108.262 19.8106 107.584 20.1705C106.906 20.5265 106.11 20.7045 105.197 20.7045C104.285 20.7045 103.489 20.5265 102.811 20.1705C102.133 19.8106 101.607 19.3201 101.232 18.6989C100.86 18.0739 100.675 17.3636 100.675 16.5682V8.86364H102.084V16.4545C102.084 17.0227 102.209 17.5284 102.459 17.9716C102.709 18.411 103.065 18.7576 103.527 19.0114C103.993 19.2614 104.55 19.3864 105.197 19.3864C105.845 19.3864 106.402 19.2614 106.868 19.0114C107.334 18.7576 107.69 18.411 107.936 17.9716C108.186 17.5284 108.311 17.0227 108.311 16.4545V8.86364ZM121.761 8.86364V20.5H120.398L114.057 11.3636H113.943V20.5H112.534V8.86364H113.898L120.261 18.0227H120.375V8.86364H121.761ZM133.945 12.5H132.536C132.452 12.0947 132.306 11.7386 132.098 11.4318C131.893 11.125 131.643 10.8674 131.348 10.6591C131.056 10.447 130.732 10.2879 130.376 10.1818C130.02 10.0758 129.649 10.0227 129.263 10.0227C128.558 10.0227 127.92 10.2008 127.348 10.5568C126.78 10.9129 126.327 11.4375 125.99 12.1307C125.657 12.8239 125.49 13.6742 125.49 14.6818C125.49 15.6894 125.657 16.5398 125.99 17.233C126.327 17.9261 126.78 18.4508 127.348 18.8068C127.92 19.1629 128.558 19.3409 129.263 19.3409C129.649 19.3409 130.02 19.2879 130.376 19.1818C130.732 19.0758 131.056 18.9186 131.348 18.7102C131.643 18.4981 131.893 18.2386 132.098 17.9318C132.306 17.6212 132.452 17.2652 132.536 16.8636H133.945C133.839 17.4583 133.645 17.9905 133.365 18.4602C133.085 18.9299 132.736 19.3295 132.32 19.6591C131.903 19.9848 131.435 20.233 130.916 20.4034C130.401 20.5739 129.85 20.6591 129.263 20.6591C128.27 20.6591 127.388 20.4167 126.615 19.9318C125.842 19.447 125.234 18.7576 124.791 17.8636C124.348 16.9697 124.126 15.9091 124.126 14.6818C124.126 13.4545 124.348 12.3939 124.791 11.5C125.234 10.6061 125.842 9.91667 126.615 9.43182C127.388 8.94697 128.27 8.70455 129.263 8.70455C129.85 8.70455 130.401 8.78977 130.916 8.96023C131.435 9.13068 131.903 9.38068 132.32 9.71023C132.736 10.036 133.085 10.4337 133.365 10.9034C133.645 11.3693 133.839 11.9015 133.945 12.5ZM136.222 20.5V8.86364H137.631V14.0455H143.835V8.86364H145.244V20.5H143.835V15.2955H137.631V20.5H136.222Z" fill="#DCD5CD"/>
    <defs>
        <linearGradient id="paint0_linear_10_5960" x1="10.291" y1="37.0522" x2="39.6169" y2="16.9326" gradientUnits="userSpaceOnUse">
            <stop stop-color="#36ABF4"/>
            <stop offset="1" stop-color="#5082D8"/>
        </linearGradient>
    </defs>
</svg>