<svg xmlns="http://www.w3.org/2000/svg" width="116" height="26" viewBox="0 0 116 26" fill="none" data-ab-filters-channel="0d6c017d-ac19-4f5a-a539-d29d3acaffbf">
    <g clip-path="url(#clip0_2112_3)">
        <path fill-rule="evenodd" clip-rule="evenodd" d="M19.0211 3.12231L11.4822 13.0315L3.94326 3.12231H6.10352e-05V25.5571H4.32951V10.809L11.3305 19.594H11.5708L18.6349 10.7452V25.5571H22.9641V3.12231H19.0211Z" fill="white"/>
        <path fill-rule="evenodd" clip-rule="evenodd" d="M86.5812 25.5571H90.837V1.82739L86.5812 3.12235V25.5571Z" fill="white"/>
        <path fill-rule="evenodd" clip-rule="evenodd" d="M78.6608 25.5571H82.9166V1.82739L78.6608 3.12235V25.5571Z" fill="white"/>
        <path fill-rule="evenodd" clip-rule="evenodd" d="M53.5819 21.8863L53.413 21.9429C53.4033 21.9461 52.4352 22.2687 51.4568 22.2687H51.3149C50.868 22.2687 49.8213 22.2687 48.9357 21.5891C47.9181 20.8072 47.4021 19.3665 47.4021 17.3078C47.4021 14.1226 48.9069 12.2208 51.4272 12.2208C52.0708 12.2208 52.7415 12.3473 53.4206 12.597L53.5819 12.6566V21.8863ZM53.5819 8.89527L53.2729 8.81365C52.4695 8.60203 51.5378 8.48535 50.6492 8.48535C49.2002 8.48535 47.1295 8.7883 45.4934 10.2325C43.7669 11.7564 42.8914 14.218 42.8914 17.5489C42.8914 20.5704 43.7145 22.811 45.3376 24.208C46.6712 25.3562 48.5325 25.9382 50.8698 25.9382C53.7276 25.9382 56.361 25.0881 57.6761 24.5809L57.7858 24.5391V1.96802L53.5819 3.1287V8.89527Z" fill="white"/>
        <path fill-rule="evenodd" clip-rule="evenodd" d="M94.4337 25.5572H98.6894V8.27026L94.4337 9.56522V25.5572Z" fill="white"/>
        <path fill-rule="evenodd" clip-rule="evenodd" d="M93.7022 3.13388L96.7544 6.23331L99.8063 3.18135L96.7544 0.129395L93.7022 3.13388Z" fill="#4050C6"/>
        <path fill-rule="evenodd" clip-rule="evenodd" d="M70.6684 21.4149C70.6684 21.4149 69.6087 22.7856 67.0733 22.7856C65.5338 22.7856 64.5373 21.939 64.5373 20.5205C64.5373 18.6794 66.3819 18.0234 68.1081 18.0234C69.7184 18.0234 70.6684 18.2511 70.6684 18.2511V21.4149ZM67.3707 8.4353C64.2459 8.4353 62.046 9.65265 62.046 9.65265V13.1413H62.0777C62.7622 12.8682 64.4334 12.0291 67.1757 12.0291C68.5513 12.0291 69.4943 12.322 70.0588 12.9248C70.6392 13.5442 70.6296 14.7598 70.6225 15.4923C70.6225 15.4923 69.3099 15.1582 67.7572 15.1582C62.904 15.1582 60.2311 17.2628 60.2311 20.5736C60.2311 23.8843 63.0137 25.9198 66.1105 25.9198C69.2071 25.9198 70.943 24.5761 70.943 24.5761V25.5004H75.0246V22.8639V21.7296V15.0102C75.0246 9.11712 70.6564 8.4353 67.3707 8.4353Z" fill="white"/>
        <mask id="mask0_2112_3" style="mask-type:luminance" maskUnits="userSpaceOnUse" x="100" y="8" width="16" height="18">
            <path d="M100.972 8.4353H115.765V25.9198H100.972V8.4353Z" fill="white"/>
        </mask>
        <g mask="url(#mask0_2112_3)">
            <path fill-rule="evenodd" clip-rule="evenodd" d="M111.409 21.4149C111.409 21.4149 110.35 22.7856 107.814 22.7856C106.275 22.7856 105.278 21.939 105.278 20.5205C105.278 18.6794 107.123 18.0234 108.849 18.0234C110.459 18.0234 111.409 18.2511 111.409 18.2511V21.4149ZM108.112 8.4353C104.987 8.4353 102.787 9.65265 102.787 9.65265V13.1413H102.819C103.503 12.8682 105.174 12.0291 107.917 12.0291C109.292 12.0291 110.235 12.322 110.8 12.9248C111.38 13.5442 111.37 14.7598 111.363 15.4923C111.363 15.4923 110.051 15.1582 108.498 15.1582C103.645 15.1582 100.972 17.2628 100.972 20.5736C100.972 23.8843 103.755 25.9198 106.851 25.9198C109.948 25.9198 111.684 24.5761 111.684 24.5761V25.5004H115.765V22.8639V21.7296V15.0102C115.765 9.11712 111.397 8.4353 108.112 8.4353Z" fill="white"/>
        </g>
        <path fill-rule="evenodd" clip-rule="evenodd" d="M29.9209 15.6872C29.9209 15.29 29.9749 14.5283 30.3319 13.8582C30.7877 13.0029 31.8287 11.9827 33.5667 11.9827C35.3128 11.9827 36.2537 13.0106 36.6528 13.8732C36.97 14.5595 36.9843 15.3154 36.9843 15.6872H29.9209ZM40.778 16.9383C40.778 13.8875 40.0378 11.6726 38.5781 10.2998C37.3898 9.18216 35.7063 8.45093 33.5746 8.45093C31.6119 8.45093 29.7043 9.12732 28.3412 10.3064C26.5472 11.8589 25.6375 14.2037 25.6375 17.2755C25.6375 25.1361 31.512 25.9844 34.0378 25.9844C36.5132 25.9844 38.7796 25.0929 39.6842 24.6861V21.1356C39.0647 21.5082 37.2212 22.4732 34.7324 22.4732C33.3949 22.4732 31.5803 21.9713 30.5309 20.3631C30.1137 19.7239 29.9528 19.0873 29.8914 18.7199H40.7215C40.7215 18.7199 40.778 17.6706 40.778 16.9383Z" fill="white"/>
    </g>
    <defs>
        <clipPath id="clip0_2112_3">
            <rect width="116" height="26" fill="white"/>
        </clipPath>
    </defs>
</svg>