<svg viewBox="0 0 24 24" xmlns="http://www.w3.org/2000/svg">
  <path fill="currentColor" d="M23.957 15.688c-.046-.226-.145-.429-.294-.6-.44-.505-1.123-1.002-1.956-1.423-.846-.425-1.843-.787-2.868-1.031-1.026-.241-2.073-.393-3.003-.434-.343-.016-.628-.024-.849-.024-.22 0-.505.008-.849.024-.93.041-1.977.193-3.003.434-1.025.244-2.022.606-2.868 1.031-.833.421-1.516.918-1.956 1.423-.149.171-.248.374-.294.6a.91.91 0 00-.012.16c0 .247.075.49.215.702.327.493.896.906 1.623 1.189.726.284 1.623.472 2.569.537.947.065 1.947.025 2.846-.11.898-.135 1.696-.381 2.296-.707.135-.073.238-.179.303-.311a.48.48 0 00.033-.179v-.004c0-.063-.011-.124-.033-.179-.065-.132-.168-.238-.303-.311-.6-.326-1.398-.572-2.296-.707-.899-.135-1.899-.175-2.846-.11-.946.065-1.843.253-2.569.537-.727.283-1.296.696-1.623 1.189-.14.212-.215.455-.215.702 0 .054.004.108.012.16.046.226.145.429.294.6.44.505 1.123 1.002 1.956 1.423.846.425 1.843.787 2.868 1.031 1.026.241 2.073.393 3.003.434.343.016.628.024.849.024.22 0 .505-.008.849-.024.93-.041 1.977-.193 3.003-.434 1.025-.244 2.022-.606 2.868-1.031.833-.421 1.516-.918 1.956-1.423.149-.171.248-.374.294-.6a.91.91 0 00.012-.16c0-.247-.075-.49-.215-.702-.327-.493-.896-.906-1.623-1.189-.726-.284-1.623-.472-2.569-.537-.947-.065-1.947-.025-2.846.11-.898.135-1.696.381-2.296.707-.135.073-.238.179-.303.311a.48.48 0 00-.033.179v.004c0 .063.011.124.033.179.065.132.168.238.303.311.6.326 1.398.572 2.296.707.899.135 1.899.175 2.846.11.946-.065 1.843-.253 2.569-.537.727-.283 1.296-.696 1.623-1.189.14-.212.215-.455.215-.702 0-.054-.004-.108-.012-.16z" />
</svg>
