<svg xmlns="http://www.w3.org/2000/svg" viewBox="0 0 1020 175" fill="white" >
  <path d="M67.31,172.66C26.62,172.66.3,153.51.3,117.61l2.39-2.39h19.15l2.39,2.39c0,23.93,16.75,33.51,45.47,33.51,21.54,0,38.29-7.18,38.29-26.33,0-21.54-14.36-26.32-47.86-31.11C26.62,88.89,5.08,74.53,5.08,45.82,5.08,24.28,21.84.34,64.91.34c35.9,0,62.22,14.36,62.22,50.26l-2.39,2.39h-19.15l-2.39-2.39c0-19.15-9.57-28.72-40.68-28.72-21.54,0-33.51,9.57-33.51,23.93,0,19.15,11.97,23.93,45.47,28.72,33.51,4.79,57.44,16.75,57.44,50.26,0,26.33-19.15,47.86-64.62,47.86Z"/>
  <path d="M202.11,48.21c35.9,0,57.44,23.93,57.44,62.22s-21.54,62.22-57.44,62.22-57.44-23.93-57.44-62.22,21.54-62.22,57.44-62.22ZM202.11,151.12c21.54,0,33.51-14.36,33.51-40.68s-11.97-40.68-33.51-40.68-33.51,14.36-33.51,40.68,11.97,40.68,33.51,40.68Z"/>
  <path d="M503.68,172.66c-40.68,0-67.01-19.14-67.01-55.04l2.39-2.39h19.15l2.39,2.39c0,23.93,16.75,33.51,45.47,33.51,21.54,0,38.29-7.18,38.29-26.33,0-21.54-14.36-26.32-47.86-31.11-33.51-4.79-55.04-19.15-55.04-47.86,0-21.54,16.75-45.47,59.83-45.47,35.9,0,62.22,14.36,62.22,50.26l-2.39,2.39h-19.15l-2.39-2.39c0-19.15-9.57-28.72-40.68-28.72-21.54,0-33.51,9.57-33.51,23.93,0,19.15,11.96,23.93,45.47,28.72,33.51,4.79,57.44,16.75,57.44,50.26,0,26.33-19.14,47.86-64.62,47.86Z"/>
  <path d="M581.04,110.43c0-33.5,16.75-62.22,55.04-62.22s55.04,28.72,55.04,62.22v7.18l-2.39,2.39h-78.98l-2.39,2.39c0,4.79,2.39,28.72,31.11,28.72,9.57,0,19.15-2.39,23.93-14.36l2.39-2.39h19.15l2.39,2.39c-2.39,19.15-19.15,35.9-47.86,35.9-38.29,0-57.44-26.32-57.44-62.22ZM664.81,98.47c0-7.18-2.39-28.72-28.72-28.72s-28.72,21.54-28.72,28.72l2.39,2.39h52.65l2.39-2.39Z"/>
  <path d="M899.61,110.43c0-33.5,16.75-62.22,55.04-62.22s55.04,28.72,55.04,62.22v7.18l-2.39,2.39h-78.98l-2.39,2.39c0,4.79,2.39,28.72,31.11,28.72,9.57,0,19.15-2.39,23.93-14.36l2.39-2.39h19.15l2.39,2.39c-2.39,19.15-19.15,35.9-47.86,35.9-38.29,0-57.44-26.32-57.44-62.22ZM983.38,98.47c0-7.18-2.39-28.72-28.72-28.72s-28.72,21.54-28.72,28.72l2.39,2.39h52.65l2.39-2.39Z"/>
  <path d="M774.43,50.6h-9.57c-16.75,0-23.93,4.79-31.11,11.96h-2.39v-9.57l-2.39-2.39h-19.15l-2.39,2.39v114.87l2.39,2.39h19.15l2.39-2.39v-59.83c0-28.72,11.96-35.9,31.11-35.9h11.97l2.39-2.39v-16.75l-2.39-2.39Z"/>
  <path d="M853.26,167.87l-2.39,2.39h-21.54l-2.39-2.39-40.68-98.12v-16.75l2.39-2.39h14.36l2.39,2.39,33.51,83.76h2.39l33.51-83.76,2.39-2.39h14.36l2.39,2.39v16.75l-40.68,98.12Z"/>
  <path d="M404.08,148.72c-4.79,0-9.57-2.39-9.57-9.57v-64.62l2.39-2.39h23.61l2.39-2.39,7.81-16.75-2.37-2.39h-31.45l-2.39-2.39v-21.54l-2.39-2.39h-19.15l-2.39,2.39v21.54l-2.39,2.39h-12.63l-2.4,2.39-7.81,16.75h0s0,0,0,0l2.39,2.39h20.45l2.39,2.39v64.62c0,21.54,16.75,31.11,33.51,31.11h19.15l2.39-2.39v-16.75l-2.39-2.39h-19.15Z"/>
  <path d="M313.29,50.6l-2.39-2.39v-9.57c0-7.18,4.79-9.57,9.57-9.57h15.5l2.39-2.39,7.81-16.75-2.37-2.39h-23.33c-16.75,0-33.51,9.57-33.51,31.11v9.57l-2.39,2.39h-13.99l-2.42,2.39-7.81,16.75,2.39,2.39h21.83l2.39,2.39v93.34l2.39,2.39h19.15l2.39-2.39v-93.34l2.39-2.39h18.62l2.39-2.39,7.81-16.75-2.37-2.39h-26.45Z"/>
</svg>
