<svg viewBox="0 0 24 24" xmlns="http://www.w3.org/2000/svg">
  <path fill="currentColor" d="M24 10.632c0-3.372-1.772-4.665-4.577-4.665-2.887 0-4.904 1.464-4.904 4.138 0 4.416 5.928 3.737 5.928 5.61 0 .741-.65 1.174-1.638 1.174-1.43 0-2.314-.546-2.314-.546l-.546 2.054s1.027.611 2.861.611c2.977 0 5.096-1.391 5.096-4.112 0-4.636-5.904-3.83-5.904-5.64 0-.613.56-.99 1.391-.99.95 0 1.95.403 1.95.403l.657-2.027zm-11.41-1.353c-.312-1.222-1.131-1.898-2.288-1.898-.923 0-1.859.39-1.859.39l.624-1.82s.936-.455 2.509-.455c2.145 0 3.731.845 4.303 2.899l1.833 7.02c.312 1.222 1.131 1.898 2.288 1.898.923 0 1.859-.39 1.859-.39l-.624 1.82s-.936.455-2.509.455c-2.145 0-3.731-.845-4.303-2.899L12.59 9.279zm-7.722 7.748s-.936.455-2.509.455c-2.145 0-3.731-.845-4.303-2.899L0 13.065c.312 1.222 1.131 1.898 2.288 1.898.923 0 1.859-.39 1.859-.39l.624-1.82s.936-.455 2.509-.455c2.145 0 3.731.845 4.303 2.899l1.833 7.02c.312 1.222 1.131 1.898 2.288 1.898.923 0 1.859-.39 1.859-.39l-.624 1.82s-.936.455-2.509.455c-2.145 0-3.731-.845-4.303-2.899l-1.833-7.02z" />
</svg>
